<svg xmlns="http://www.w3.org/2000/svg" viewBox="0 0 512 512" fill="none">
  <g stroke="#111111" stroke-width="18" stroke-linecap="round" stroke-linejoin="round">
    <path d="M256 236 L256 80"/>
    <path d="M256 236 L256 430"/>
    <path d="M256 236 L116 176"/>
    <path d="M256 236 L396 176"/>
    <path d="M256 236 L128 328"/>
    <path d="M256 236 L384 328"/>

    <path d="M256 170 L234 136 L250 112"/>
    <path d="M256 138 L278 110 L270 84"/>

    <path d="M256 302 L236 334 L246 370"/>
    <path d="M256 338 L278 368 L270 420"/>

    <path d="M188 208 L150 196 L122 208"/>
    <path d="M166 198 L140 170 L104 162"/>

    <path d="M324 208 L362 196 L390 206"/>
    <path d="M346 198 L372 170 L408 162"/>

    <path d="M186 288 L154 306 L120 310"/>
    <path d="M164 306 L142 338 L112 350"/>

    <path d="M326 288 L358 306 L392 310"/>
    <path d="M348 306 L370 338 L400 350"/>
  </g>
</svg>
